<?xml version="1.0" encoding="utf-8"?>
<!-- Generator: Adobe Illustrator 25.1.0, SVG Export Plug-In . SVG Version: 6.00 Build 0)  -->
<svg version="1.1" id="Calque_1" xmlns="http://www.w3.org/2000/svg" xmlns:xlink="http://www.w3.org/1999/xlink" x="0px" y="0px"
	 viewBox="0 0 394.6 394.6" style="enable-background:new 0 0 394.6 394.6;" xml:space="preserve">
<style type="text/css">
	.st0{fill:#FFFFFF;}
</style>
<g>
	<path class="st0" d="M187.28,326.29c-7.07,0-13.46,5.99-14.33,15.98h26.67C199.62,331.6,194.78,326.29,187.28,326.29z"/>
	<path class="st0" d="M290.45,353.55c0,3.78,2.58,5.43,6.16,5.43c3.48,0,6.13-1.71,9.3-4.63v-9.61
		C294.32,346.21,290.45,349.24,290.45,353.55z"/>
	<path class="st0" d="M229.82,326.36c-8.44,0-14.73,7.63-14.73,18.63c0,11,6.28,18.47,14.73,18.47c8.44,0,14.73-7.47,14.73-18.47
		C244.55,333.99,238.26,326.36,229.82,326.36z"/>
	<path class="st0" d="M347.34,330.29c-3.1,0-6.09,1.57-9.33,4.8v19.92c2.99,2.61,6.09,3.55,8.57,3.55c5.71,0,10.06-5.01,10.06-14.69
		C356.64,335.34,353.86,330.29,347.34,330.29z"/>
	<path class="st0" d="M394.47,5.49c-0.02-0.12-0.05-0.24-0.08-0.36c-0.07-0.28-0.15-0.55-0.25-0.81c-0.04-0.11-0.08-0.23-0.13-0.34
		c-0.16-0.35-0.33-0.69-0.55-1.01c-0.02-0.03-0.05-0.05-0.07-0.08c-0.2-0.29-0.43-0.56-0.67-0.81c-0.08-0.08-0.17-0.16-0.25-0.24
		c-0.2-0.19-0.42-0.37-0.65-0.53c-0.1-0.07-0.2-0.14-0.3-0.21c-0.27-0.18-0.56-0.33-0.87-0.47c-0.06-0.03-0.11-0.06-0.17-0.09
		c-0.01,0-0.01-0.01-0.02-0.01c-0.12-0.05-0.25-0.07-0.38-0.12c-0.28-0.1-0.56-0.2-0.86-0.26C388.79,0.05,388.34,0,387.91,0
		c0,0,0,0,0,0H262.64c-1.77,0-3.48,0.7-4.73,1.96L197.3,62.57L136.69,1.96C135.43,0.71,133.73,0,131.96,0H6.69c0,0,0,0,0,0
		C6.25,0,5.81,0.05,5.37,0.13C5.08,0.19,4.8,0.3,4.51,0.39C4.39,0.44,4.26,0.46,4.13,0.51c-0.01,0-0.01,0.01-0.02,0.01
		C4.05,0.54,4,0.58,3.94,0.61C3.64,0.74,3.35,0.9,3.07,1.08c-0.1,0.07-0.2,0.14-0.3,0.21C2.55,1.45,2.33,1.63,2.13,1.82
		C2.04,1.9,1.95,1.98,1.87,2.06C1.63,2.32,1.4,2.59,1.2,2.88C1.18,2.91,1.15,2.93,1.14,2.96C0.92,3.28,0.74,3.62,0.59,3.97
		C0.54,4.08,0.5,4.2,0.46,4.31C0.35,4.58,0.27,4.85,0.2,5.12C0.17,5.24,0.14,5.36,0.12,5.48C0.05,5.88,0,6.28,0,6.69v381.21
		c0,3.7,3,6.69,6.69,6.69H387.9c3.7,0,6.69-3,6.69-6.69v-80.58V6.69C394.6,6.28,394.55,5.88,394.47,5.49z M131.96,6.69l65.34,65.34
		l65.34-65.34h115.81h9.46v300.63h-19.43c-0.68,0-1.36-0.13-2-0.39l-41.18-15.95v-17.6l-17.04,0.28l-0.05,12.22
		c0,0-33.89-12.31-44.64-18.06c-0.44-0.24-0.87-0.43-1.29-0.61c-0.13-0.05-0.25-0.1-0.37-0.15c-0.3-0.12-0.6-0.22-0.9-0.3
		c-0.12-0.04-0.25-0.07-0.37-0.11c-0.36-0.09-0.71-0.17-1.06-0.22c-0.04-0.01-0.07-0.02-0.11-0.02c-0.38-0.05-0.76-0.07-1.13-0.08
		c-0.03,0-0.07-0.01-0.1-0.01c-0.07,0-0.14,0.01-0.22,0.01c-0.28,0.01-0.56,0.02-0.84,0.05c-0.11,0.01-0.23,0.02-0.34,0.04
		c-0.34,0.05-0.67,0.11-1.01,0.19c-0.04,0.01-0.07,0.01-0.11,0.02c-0.38,0.09-0.76,0.2-1.14,0.32c-0.12,0.04-0.24,0.08-0.35,0.12
		c-0.29,0.1-0.57,0.2-0.87,0.31c-0.12,0.05-0.24,0.09-0.36,0.14c-0.37,0.15-0.75,0.3-1.13,0.47c-0.03,0.01-0.06,0.02-0.09,0.04
		c-0.43,0.19-0.89,0.39-1.35,0.59c-0.36,0.16-0.74,0.33-1.12,0.5c-0.2,0.09-0.4,0.18-0.61,0.27c-0.5,0.22-1.02,0.45-1.56,0.68
		c-16.25,6.95-44.12,22.74-51.63,27.46c-0.24,0.15-0.5,0.31-0.77,0.48c-1.11,0.69-2.52,1.53-3.95,2.17
		c-0.36,0.16-0.71,0.31-1.07,0.44c-0.71,0.26-1.4,0.45-2.05,0.52c0,0-6.08,0.03-12.69,0.15c-3.67,0.07-7.51,0.17-10.55,0.31
		c-1.22,0.06-2.31,0.12-3.21,0.19c0,0,0,0,0,0c-0.63,0.05-1.19,0.09-1.72,0.13c-0.17,0.01-0.32,0.02-0.48,0.03
		c-0.39,0.02-0.75,0.03-1.11,0.04c-0.22,0-0.44,0.01-0.66,0c-0.09,0-0.18,0-0.27-0.01c-0.35-0.01-0.7-0.04-1.05-0.07
		c-0.04,0-0.09-0.01-0.13-0.02c-0.31-0.04-0.63-0.09-0.95-0.15c-0.09-0.02-0.19-0.04-0.28-0.06c-0.37-0.08-0.75-0.17-1.15-0.29
		c-0.03-0.01-0.05-0.02-0.08-0.03c-0.38-0.12-0.79-0.25-1.21-0.41c-0.12-0.04-0.23-0.08-0.35-0.13c-0.47-0.18-0.95-0.37-1.49-0.59
		c-4.47-1.89-10.37-4.29-16.74-6.92c-5.31-2.19-10.97-4.54-16.42-6.9c-5.45-2.36-10.71-4.72-15.22-6.93
		c-0.66-0.32-1.25-0.62-1.83-0.9c-0.29-0.14-0.59-0.29-0.86-0.42c-0.15-0.07-0.28-0.13-0.43-0.2c-0.25-0.12-0.51-0.24-0.74-0.35
		c-0.16-0.07-0.31-0.13-0.46-0.2c-0.21-0.09-0.42-0.19-0.62-0.27c-0.15-0.06-0.3-0.11-0.45-0.17c-0.19-0.07-0.38-0.15-0.57-0.21
		c-0.15-0.05-0.29-0.09-0.44-0.13c-0.18-0.05-0.35-0.11-0.53-0.15c-0.14-0.04-0.29-0.06-0.43-0.09c-0.17-0.03-0.34-0.07-0.5-0.09
		c-0.14-0.02-0.29-0.03-0.43-0.04c-0.16-0.01-0.33-0.03-0.5-0.03c-0.04,0-0.08-0.01-0.11-0.01c-0.12,0-0.25,0.02-0.37,0.02
		c-0.14,0.01-0.28,0.01-0.42,0.03c-0.17,0.02-0.34,0.05-0.51,0.08c-0.14,0.02-0.28,0.04-0.43,0.08c-0.18,0.04-0.36,0.1-0.55,0.15
		c-0.15,0.04-0.29,0.08-0.44,0.13c-0.19,0.06-0.4,0.15-0.6,0.23c-0.15,0.06-0.3,0.11-0.46,0.18c-0.21,0.09-0.44,0.21-0.67,0.31
		c-0.16,0.08-0.31,0.14-0.48,0.23c-0.24,0.12-0.5,0.27-0.76,0.41c-0.16,0.09-0.32,0.17-0.49,0.27c-0.29,0.16-0.59,0.35-0.9,0.54
		c-0.16,0.1-0.31,0.18-0.48,0.29c-0.48,0.3-0.98,0.62-1.52,0.98c-0.49,0.32-1.08,0.69-1.75,1.09c-2.7,1.6-6.8,3.75-11.52,6.15
		c-0.59,0.3-1.19,0.6-1.8,0.91c-4.27,2.15-8.94,4.45-13.53,6.7c-0.66,0.32-1.31,0.64-1.96,0.96c-8.45,4.14-16.33,7.99-20.41,10.19
		c-0.44,0.24-0.92,0.53-1.42,0.77c-0.25,0.12-0.51,0.22-0.76,0.3s-0.51,0.12-0.77,0.12H6.69V6.69h9.46H131.96z M75.86,365.81h-3.85
		V339.5c0-8.86-2.96-13.07-9.37-13.07c-3.93,0-7.91,2.61-12.52,7.85v31.53h-3.85V339.5c0-8.86-2.96-13.07-9.37-13.07
		c-3.78,0-7.91,2.61-12.52,7.85v31.53h-3.85v-41.8h3.26l0.42,6.49h0.19c3.8-4.26,8.55-7.53,13.21-7.53c6.7,0,10.05,3.38,11.54,8.53
		c4.74-5.22,9.37-8.53,14.19-8.53c8.32,0,12.5,5.24,12.5,16.03V365.81z M121.26,365.81h-3.26l-0.42-7h-0.19
		c-4.11,4.8-8.43,8.04-14.19,8.04c-8.64,0-12.64-5.24-12.64-16.03v-26.81h3.85v26.31c0,8.86,2.8,13.07,9.52,13.07
		c4.98,0,8.58-2.61,13.48-8.53v-30.85h3.85V365.81z M147.39,366.85c-6.2,0-11.58-2.59-15.32-5.78l2.23-2.8
		c3.53,2.96,7.34,5.29,13.28,5.29c6.58,0,9.99-3.85,9.99-8.25c0-5.24-5.41-7.54-10.24-9.28c-6.3-2.24-13.32-4.81-13.32-11.94
		c0-6.02,4.77-11.12,13.48-11.12c4.47,0,8.9,1.85,11.94,4.33l-2.07,2.77c-2.82-2.11-5.79-3.81-9.97-3.81
		c-6.52,0-9.47,3.75-9.47,7.61c0,4.77,4.93,6.58,9.91,8.46c6.48,2.46,13.65,4.6,13.65,12.74
		C161.48,361.37,156.44,366.85,147.39,366.85z M203.02,345.44h-30.06c0.14,10.55,6.32,18.09,15.74,18.09c4.53,0,8.1-1.5,11.23-3.71
		l1.58,2.93c-3.29,2.05-7.05,4.11-13.18,4.11c-10.67,0-19.32-8.2-19.32-21.87c0-13.63,8.86-22.02,18.23-22.02
		c9.91,0,16,7.05,16,19.34C203.24,343.35,203.21,344.4,203.02,345.44z M229.82,366.85c-10.05,0-18.77-8.04-18.77-21.87
		c0-13.98,8.72-22.02,18.77-22.02c10.05,0,18.77,8.04,18.77,22.02C248.59,358.81,239.87,366.85,229.82,366.85z M269.2,366.85
		c-7.1,0-9.71-4.6-9.71-12.05v-50.49h10.03v51.01c0,2.47,1.11,3.34,2.16,3.34c0.45,0,0.8,0,1.57-0.17l1.25,7.49
		C273.27,366.47,271.6,366.85,269.2,366.85z M315.94,365.81h-8.22l-0.77-4.73h-0.28c-3.83,3.27-8.22,5.78-13.27,5.78
		c-7.49,0-12.64-5.08-12.64-12.53c0-9.16,7.59-13.93,25.14-15.81c-0.14-4.6-1.98-8.43-7.76-8.43c-4.25,0-8.25,1.92-12.01,4.21
		l-3.69-6.69c4.7-2.96,10.76-5.61,17.55-5.61c10.69,0,15.95,6.58,15.95,18.49V365.81z M348.7,366.85c-3.9,0-8.08-1.98-11.66-5.54
		h-0.28l-0.87,4.49h-7.9v-61.49h10.03v15.91l-0.28,7.1c3.57-3.13,7.96-5.33,12.34-5.33c10.69,0,16.87,8.57,16.87,21.71
		C366.95,358.39,358.21,366.85,348.7,366.85z"/>
</g>
</svg>
