<?xml version="1.0" encoding="utf-8"?>
<!-- Generator: Adobe Illustrator 25.2.3, SVG Export Plug-In . SVG Version: 6.00 Build 0)  -->
<svg version="1.1" id="Calque_1" xmlns="http://www.w3.org/2000/svg" xmlns:xlink="http://www.w3.org/1999/xlink" x="0px" y="0px"
	 viewBox="0 0 500.6 60.6" style="enable-background:new 0 0 500.6 60.6;" xml:space="preserve">
<style type="text/css">
	.st0{fill:#FFFFFF;}
</style>
<g>
	<path class="st0" d="M500.6,60.6c-1,0-2-0.2-3-0.6l-60.9-23.6v-26l-25.2,0.4l-0.1,18.1c0,0-50.1-18.2-66-26.7
		c-8.8-4.7-14.1-1-24.3,3.4c-24,10.3-65.3,33.6-76.4,40.6c-2.8,1.8-7.8,4.9-11.6,5.3c0,0-28.4,0.1-39.1,1c-6.6,0.5-9.1,0.7-16.2-2.3
		c-17.6-7.5-50.2-20.2-71.6-30.7c-11.6-5.7-13.8-7.5-26.6,1C68.2,28.1,19.2,50.8,4.4,58.9c-1.3,0.7-2.8,1.8-4.4,1.8H500.6z"/>
</g>
</svg>
